<?xml version="1.0" encoding="utf-8"?>
<!-- Generator: Adobe Illustrator 24.2.1, SVG Export Plug-In . SVG Version: 6.00 Build 0)  -->
<svg version="1.1" id="Capa_1" xmlns="http://www.w3.org/2000/svg" xmlns:xlink="http://www.w3.org/1999/xlink" x="0px" y="0px"
	 viewBox="0 0 1024 1024" style="enable-background:new 0 0 1024 1024;" xml:space="preserve">
<style type="text/css">
	.st0{fill:url(#SVGID_1_);}
	.st1{fill:#DF0181;}
	.st2{fill:#C501FF;}
	.st3{fill:url(#SVGID_2_);}
	.st4{fill:url(#SVGID_3_);}
	.st5{fill:url(#SVGID_4_);}
	.st6{fill:url(#SVGID_5_);}
</style>
<g>
	<linearGradient id="SVGID_1_" gradientUnits="userSpaceOnUse" x1="111.9975" y1="512" x2="912.0025" y2="512">
		<stop  offset="0" style="stop-color:#B8025F"/>
		<stop  offset="1" style="stop-color:#FC3333"/>
	</linearGradient>
	<path class="st0" d="M853.4,653.4c-78.1,78.1-204.7,78.1-282.8,0L365,459c-0.4-0.4-0.9-0.9-1.3-1.3c-15.2-14.8-32.9-25.4-51.7-31.7
		c-48-16.3-103.2-5.3-141.4,33c-53.7,53.7-53.7,140.8,0,194.5c-78.1-78.1-78.1-204.7,0-282.8c78.1-78.1,204.7-78.1,282.8,0L659,565
		c0.4,0.4,0.9,0.9,1.3,1.3c15.2,14.8,32.9,25.4,51.7,31.7c48,16.3,103.2,5.3,141.4-33c53.7-53.7,53.7-140.8,0-194.5
		C931.5,448.7,931.5,575.3,853.4,653.4z"/>
	<path class="st1" d="M453.4,653.4c-78.1,78.1-204.7,78.1-282.8,0c-53.7-53.7-53.7-140.8,0-194.5c38.3-38.3,93.4-49.3,141.4-33
		c18.8,6.4,36.6,16.9,51.7,31.7C350.3,444.9,332.1,437,312,437s-38.3,7.9-51.7,20.7c-0.4,0.4-0.9,0.8-1.3,1.3
		c-0.4,0.4-0.9,0.9-1.3,1.3c-52.4,53.8-52,139.9,1.3,193.1c15.5,15.5,33.7,26.5,53,33C360,702.7,415.2,691.7,453.4,653.4z"/>
	<path class="st2" d="M453.4,653.4c-38.3,38.3-93.4,49.3-141.4,33c-19.4-6.5-37.6-17.5-53-33c-53.3-53.3-53.7-139.4-1.3-193.1
		C244.9,473.7,237,491.9,237,512c0,41.4,33.6,75,75,75c20.7,0,39.5-8.4,53-22L453.4,653.4z"/>
	<linearGradient id="SVGID_2_" gradientUnits="userSpaceOnUse" x1="874.0795" y1="585.6745" x2="716.9719" y2="428.5669">
		<stop  offset="0" style="stop-color:#FF5638"/>
		<stop  offset="1" style="stop-color:#FFD614"/>
	</linearGradient>
	<path class="st3" d="M853.4,565c-38.3,38.3-93.4,49.3-141.4,33c-18.8-6.4-36.6-16.9-51.7-31.7c13.4,12.8,31.7,20.7,51.7,20.7
		s38.3-7.9,51.7-20.7c0.4-0.4,0.9-0.8,1.3-1.3c0.4-0.4,0.9-0.9,1.3-1.3c50.2-51.5,51.9-132.7,5.2-186.2l39.4-39.4
		c15.2,8.7,29.5,19.5,42.5,32.5C907.1,424.3,907.1,511.3,853.4,565z"/>
	<linearGradient id="SVGID_3_" gradientUnits="userSpaceOnUse" x1="111.9975" y1="512" x2="912.0025" y2="512">
		<stop  offset="0" style="stop-color:#000000;stop-opacity:0.1"/>
		<stop  offset="0.5" style="stop-color:#000000;stop-opacity:0"/>
		<stop  offset="1" style="stop-color:#000000;stop-opacity:0.1"/>
	</linearGradient>
	<path class="st4" d="M853.4,653.4c-78.1,78.1-204.7,78.1-282.8,0L365,459c-0.4-0.4-0.9-0.9-1.3-1.3c-15.2-14.8-32.9-25.4-51.7-31.7
		c-48-16.3-103.2-5.3-141.4,33c-53.7,53.7-53.7,140.8,0,194.5c-78.1-78.1-78.1-204.7,0-282.8c78.1-78.1,204.7-78.1,282.8,0L659,565
		c0.4,0.4,0.9,0.9,1.3,1.3c15.2,14.8,32.9,25.4,51.7,31.7c48,16.3,103.2,5.3,141.4-33c53.7-53.7,53.7-140.8,0-194.5
		C931.5,448.7,931.5,575.3,853.4,653.4z"/>
	<linearGradient id="SVGID_4_" gradientUnits="userSpaceOnUse" x1="169.7185" y1="458.1235" x2="304.4034" y2="592.8084">
		<stop  offset="0" style="stop-color:#000000;stop-opacity:0.4"/>
		<stop  offset="1" style="stop-color:#000000;stop-opacity:0"/>
	</linearGradient>
	<path class="st5" d="M453.4,653.4c-78.1,78.1-204.7,78.1-282.8,0c-53.7-53.7-53.7-140.8,0-194.5c38.3-38.3,93.4-49.3,141.4-33
		c18.8,6.4,36.6,16.9,51.7,31.7C350.3,444.9,332.1,437,312,437s-38.3,7.9-51.7,20.7c-0.4,0.4-0.9,0.8-1.3,1.3
		c-0.4,0.4-0.9,0.9-1.3,1.3c-52.4,53.8-52,139.9,1.3,193.1c15.5,15.5,33.7,26.5,53,33C360,702.7,415.2,691.7,453.4,653.4z"/>
	<linearGradient id="SVGID_5_" gradientUnits="userSpaceOnUse" x1="218.6949" y1="576.9811" x2="453.42" y2="576.9811">
		<stop  offset="0" style="stop-color:#000000;stop-opacity:0.5"/>
		<stop  offset="1" style="stop-color:#000000;stop-opacity:0"/>
	</linearGradient>
	<path class="st6" d="M453.4,653.4c-38.3,38.3-93.4,49.3-141.4,33c-19.4-6.5-37.6-17.5-53-33c-53.3-53.3-53.7-139.4-1.3-193.1
		C244.9,473.7,237,491.9,237,512c0,41.4,33.6,75,75,75c20.7,0,39.5-8.4,53-22L453.4,653.4z"/>
</g>
</svg>
